<svg xmlns="http://www.w3.org/2000/svg" viewBox="0 0 100 100" width="100" height="100">
  <defs>
    <linearGradient id="mandalaGrad" x1="0%" y1="0%" x2="100%" y2="100%">
      <stop offset="0%" stop-color="#e040fb" />
      <stop offset="100%" stop-color="#00e5ff" />
    </linearGradient>
  </defs>
  <circle cx="50" cy="50" r="45" fill="none" stroke="url(#mandalaGrad)" stroke-width="1.5" />
  <circle cx="50" cy="50" r="35" fill="none" stroke="url(#mandalaGrad)" stroke-width="1.5" />
  <g stroke="url(#mandalaGrad)" stroke-width="1" fill="none">
    <path d="M50 5 C40 25, 60 25, 50 5 C40 25, 30 15, 50 5" />
    <path d="M50 95 C40 75, 60 75, 50 95" />
    <path d="M5 50 C25 40, 25 60, 5 50" />
    <path d="M95 50 C75 40, 75 60, 95 50" />
    <path d="M18 18 C35 30, 30 35, 18 18" />
    <path d="M82 82 C65 70, 70 65, 82 82" />
    <path d="M18 82 C35 70, 30 65, 18 82" />
    <path d="M82 18 C65 30, 70 35, 82 18" />
  </g>
  <circle cx="50" cy="50" r="10" fill="url(#mandalaGrad)" />
</svg>