<svg xmlns="http://www.w3.org/2000/svg" viewBox="0 0 100 100" width="100" height="100">
  <path d="M15 50 C15 75, 30 85, 50 85 C70 85, 85 75, 85 50 L80 50 C80 68, 68 76, 50 76 C32 76, 20 68, 20 50 Z" fill="#8d4f1d" />
  <path d="M10 50 C10 50, 30 52, 50 42 C70 52, 90 50, 90 50 C90 50, 75 75, 50 75 C25 75, 10 50, 10 50 Z" fill="#a1622f" stroke="#8d4f1d" stroke-width="2" />
  <path d="M50 42 C45 32, 45 10, 50 5 C55 10, 55 32, 50 42 Z" fill="#ff9100" />
  <path d="M50 35 C48 28, 48 18, 50 12 C52 18, 52 28, 50 35 Z" fill="#ffea00" />
</svg>