<svg xmlns="http://www.w3.org/2000/svg" viewBox="0 0 400 30" width="400" height="30">
  <line x1="0" y1="15" x2="400" y2="15" stroke="#4caf50" stroke-width="2" />
  <circle cx="20" cy="15" r="10" fill="#ff9100" />
  <circle cx="20" cy="15" r="7" fill="#ffea00" />
  <circle cx="60" cy="15" r="10" fill="#ff9100" />
  <circle cx="60" cy="15" r="7" fill="#ffea00" />
  <circle cx="100" cy="15" r="10" fill="#ff9100" />
  <circle cx="100" cy="15" r="7" fill="#ffea00" />
  <circle cx="140" cy="15" r="10" fill="#ff9100" />
  <circle cx="140" cy="15" r="7" fill="#ffea00" />
  <circle cx="180" cy="15" r="10" fill="#ff9100" />
  <circle cx="180" cy="15" r="7" fill="#ffea00" />
  <circle cx="220" cy="15" r="10" fill="#ff9100" />
  <circle cx="220" cy="15" r="7" fill="#ffea00" />
  <circle cx="260" cy="15" r="10" fill="#ff9100" />
  <circle cx="260" cy="15" r="7" fill="#ffea00" />
  <circle cx="300" cy="15" r="10" fill="#ff9100" />
  <circle cx="300" cy="15" r="7" fill="#ffea00" />
  <circle cx="340" cy="15" r="10" fill="#ff9100" />
  <circle cx="340" cy="15" r="7" fill="#ffea00" />
  <circle cx="380" cy="15" r="10" fill="#ff9100" />
  <circle cx="380" cy="15" r="7" fill="#ffea00" />
</svg>