<svg xmlns="http://www.w3.org/2000/svg" viewBox="0 0 100 100" width="100" height="100">
  <path d="M50 90 C42 90, 35 80, 35 70 C35 60, 32 55, 32 50 C32 46, 34 44, 37 44 C40 44, 42 48, 44 52 L44 25 C44 21, 47 18, 50 18 C53 18, 56 21, 56 25 L56 50 L58 22 C58 18, 61 15, 64 15 C67 15, 70 18, 70 22 L70 50 L72 26 C72 22, 75 19, 78 19 C81 19, 84 22, 84 26 L84 55 C84 62, 82 72, 75 80 C68 88, 58 90, 50 90 Z" fill="none" stroke="#1976d2" stroke-width="5" stroke-linejoin="round" stroke-linecap="round" />
  <path d="M37 44 C34 44, 32 46, 32 50 C32 55, 35 60, 35 70" fill="none" stroke="#1976d2" stroke-width="5" stroke-linecap="round" />
</svg>