<svg xmlns="http://www.w3.org/2000/svg" viewBox="0 0 200 200" width="200" height="200">
  <rect x="10" y="10" width="180" height="180" fill="none" stroke="#2e7d32" stroke-width="1.5" rx="6" />
  <path d="M 5 20 C 5 5, 20 5, 20 5 C 20 5, 30 15, 20 20 C 15 22, 5 20, 5 20 Z" fill="#ec407a" />
  <circle cx="15" cy="12" r="4" fill="#ffd54f" />
  <path d="M 195 20 C 195 5, 180 5, 180 5 C 180 5, 170 15, 180 20 C 185 22, 195 20, 195 20 Z" fill="#ec407a" />
  <circle cx="185" cy="12" r="4" fill="#ffd54f" />
  <path d="M 5 180 C 5 195, 20 195, 20 195 C 20 195, 30 185, 20 180 C 15 178, 5 180, 5 180 Z" fill="#ec407a" />
  <circle cx="15" cy="188" r="4" fill="#ffd54f" />
  <path d="M 195 180 C 195 195, 180 195, 180 195 C 180 195, 170 185, 180 180 C 185 178, 195 180, 195 180 Z" fill="#ec407a" />
  <circle cx="185" cy="188" r="4" fill="#ffd54f" />
</svg>