<svg xmlns="http://www.w3.org/2000/svg" viewBox="0 0 100 100" width="100" height="100">
  <circle cx="50" cy="50" r="45" fill="#25d366" />
  <circle cx="50" cy="50" r="40" fill="none" stroke="#ffffff" stroke-width="3" />
  <path d="M 35 68 C 30 62, 28 55, 29 48 C 31 36, 40 28, 52 28 C 65 28, 73 37, 72 49 C 71 61, 61 70, 49 70 C 45 70, 41 68, 38 67 L 27 71 Z" fill="#ffffff" />
  <path d="M 38 67 L 27 71 L 31 60 C 27 52, 29 41, 37 34 C 45 27, 57 28, 64 35 C 71 42, 71 54, 64 61 C 57 68, 45 69, 38 67 Z" fill="#25d366" />
  <path d="M 45 40 Q 42 42, 44 46 C 46 50, 50 54, 54 56 Q 58 58, 60 55 C 62 53, 60 51, 58 50 C 56 49, 55 50, 53 52 C 51 51, 49 49, 48 47 C 50 45, 51 44, 50 42 C 49 40, 47 38, 45 40 Z" fill="#ffffff" />
</svg>