<svg xmlns="http://www.w3.org/2000/svg" viewBox="0 0 100 100" width="100" height="100">
  <g>
    <path d="M42 50 Q30 35, 30 25 C30 15, 42 10, 48 20 C54 10, 66 15, 66 25 C66 35, 54 50, 48 53 Z" fill="#42a5f5" />
    <path d="M48 53 L46 56 L50 56 Z" fill="#1e88e5" />
    <path d="M48 56 Q45 70, 50 85" fill="none" stroke="#b0bec5" stroke-width="2" />
  </g>
  <g transform="translate(-12, 10) scale(0.9)">
    <path d="M42 50 Q30 35, 30 25 C30 15, 42 10, 48 20 C54 10, 66 15, 66 25 C66 35, 54 50, 48 53 Z" fill="#ef5350" />
    <path d="M48 53 L46 56 L50 56 Z" fill="#d32f2f" />
    <path d="M48 56 Q52 70, 45 85" fill="none" stroke="#b0bec5" stroke-width="2" />
  </g>
  <g transform="translate(12, 8) scale(0.95)">
    <path d="M42 50 Q30 35, 30 25 C30 15, 42 10, 48 20 C54 10, 66 15, 66 25 C66 35, 54 50, 48 53 Z" fill="#ffca28" />
    <path d="M48 53 L46 56 L50 56 Z" fill="#f57f17" />
    <path d="M48 56 Q46 70, 53 85" fill="none" stroke="#b0bec5" stroke-width="2" />
  </g>
</svg>