<svg xmlns="http://www.w3.org/2000/svg" viewBox="0 0 100 100" width="100" height="100">
  <g transform="translate(-10, 0)">
    <path d="M50 75 C50 75, 20 53, 20 32 C20 19, 32 10, 45 20 C48 22, 50 25, 50 25 C50 25, 52 22, 55 20 C68 10, 80 19, 80 32 C80 53, 50 75, 50 75 Z" fill="#ec407a" opacity="0.9" />
  </g>
  <g transform="translate(10, 10)">
    <path d="M50 75 C50 75, 20 53, 20 32 C20 19, 32 10, 45 20 C48 22, 50 25, 50 25 C50 25, 52 22, 55 20 C68 10, 80 19, 80 32 C80 53, 50 75, 50 75 Z" fill="#d81b60" opacity="0.9" stroke="#fff" stroke-width="2" />
  </g>
  <path d="M 10 65 L 85 20" stroke="#ffd54f" stroke-width="4" stroke-linecap="round" />
  <path d="M 85 20 L 78 18 L 82 25 Z" fill="#ffd54f" />
  <path d="M 10 65 L 12 70 L 6 68 Z" fill="#ffd54f" />
</svg>